<svg width="283" height="267" viewBox="0 0 283 267" fill="none" xmlns="http://www.w3.org/2000/svg">
<g filter="url(#filter0_d_11_404)">
<path d="M260.737 91.7812H229.515L220.838 70.0875C211.92 47.7836 190.639 33.375 166.614 33.375H100.385C76.3658 33.375 55.0788 47.7836 46.1562 70.0875L37.4787 91.7812H6.26266C2.18986 91.7812 -0.798242 95.6089 0.192579 99.5566L3.32149 112.072C4.01506 114.857 6.51818 116.812 9.39156 116.812H19.8578C12.8542 122.93 8.34338 131.821 8.34338 141.844V166.875C8.34338 175.281 11.5557 182.869 16.6871 188.741V216.938C16.6871 226.152 24.16 233.625 33.3746 233.625H50.0621C59.2768 233.625 66.7496 226.152 66.7496 216.938V200.25H200.25V216.938C200.25 226.152 207.723 233.625 216.937 233.625H233.625C242.839 233.625 250.312 226.152 250.312 216.938V188.741C255.444 182.874 258.656 175.287 258.656 166.875V141.844C258.656 131.821 254.145 122.93 247.147 116.812H257.613C260.486 116.812 262.989 114.857 263.683 112.072L266.812 99.5566C267.798 95.6089 264.809 91.7812 260.737 91.7812ZM77.1428 82.4832C80.9444 72.9817 90.1486 66.75 100.385 66.75H166.614C176.851 66.75 186.055 72.9817 189.856 82.4832L200.25 108.469H66.7496L77.1428 82.4832ZM50.0621 166.771C40.0496 166.771 33.3746 160.117 33.3746 150.135C33.3746 140.154 40.0496 133.5 50.0621 133.5C60.0746 133.5 75.0934 148.472 75.0934 158.453C75.0934 168.434 60.0746 166.771 50.0621 166.771ZM216.937 166.771C206.925 166.771 191.906 168.434 191.906 158.453C191.906 148.472 206.925 133.5 216.937 133.5C226.95 133.5 233.625 140.154 233.625 150.135C233.625 160.117 226.95 166.771 216.937 166.771Z" fill="#0F3460"/>
</g>
<defs>
<filter id="filter0_d_11_404" x="0.00152588" y="29.375" width="283" height="208.25" filterUnits="userSpaceOnUse" color-interpolation-filters="sRGB">
<feFlood flood-opacity="0" result="BackgroundImageFix"/>
<feColorMatrix in="SourceAlpha" type="matrix" values="0 0 0 0 0 0 0 0 0 0 0 0 0 0 0 0 0 0 127 0" result="hardAlpha"/>
<feOffset dx="12"/>
<feGaussianBlur stdDeviation="2"/>
<feComposite in2="hardAlpha" operator="out"/>
<feColorMatrix type="matrix" values="0 0 0 0 0 0 0 0 0 0 0 0 0 0 0 0 0 0 0.25 0"/>
<feBlend mode="normal" in2="BackgroundImageFix" result="effect1_dropShadow_11_404"/>
<feBlend mode="normal" in="SourceGraphic" in2="effect1_dropShadow_11_404" result="shape"/>
</filter>
</defs>
</svg>
