<svg width="86" height="78" viewBox="0 0 86 78" fill="none" xmlns="http://www.w3.org/2000/svg">
<g filter="url(#filter0_d_54_40)">
<path d="M64.1813 45.196L69.9262 16.7585C70.341 14.7052 68.9538 12.75 67.0821 12.75H19.3482L18.2343 6.62363C17.9567 5.09662 16.7623 4 15.3768 4H2.91667C1.30582 4 0 5.46904 0 7.28125V9.46875C0 11.281 1.30582 12.75 2.91667 12.75H11.4094L19.9465 59.704C17.9041 61.0254 16.5278 63.503 16.5278 66.3437C16.5278 70.5722 19.5747 74 23.3333 74C27.0919 74 30.1389 70.5722 30.1389 66.3437C30.1389 64.2008 29.3554 62.2647 28.0943 60.875H53.5723C52.3113 62.2647 51.5278 64.2008 51.5278 66.3437C51.5278 70.5722 54.5747 74 58.3333 74C62.092 74 65.1389 70.5722 65.1389 66.3437C65.1389 63.3124 63.5727 60.6929 61.3012 59.4524L61.9716 56.1335C62.3864 54.0802 60.9992 52.125 59.1275 52.125H26.5073L25.7119 47.75H61.3371C62.699 47.75 63.8795 46.6899 64.1813 45.196Z" fill="#0F3460"/>
</g>
<defs>
<filter id="filter0_d_54_40" x="0" y="0" width="86" height="78" filterUnits="userSpaceOnUse" color-interpolation-filters="sRGB">
<feFlood flood-opacity="0" result="BackgroundImageFix"/>
<feColorMatrix in="SourceAlpha" type="matrix" values="0 0 0 0 0 0 0 0 0 0 0 0 0 0 0 0 0 0 127 0" result="hardAlpha"/>
<feOffset dx="12"/>
<feGaussianBlur stdDeviation="2"/>
<feComposite in2="hardAlpha" operator="out"/>
<feColorMatrix type="matrix" values="0 0 0 0 0 0 0 0 0 0 0 0 0 0 0 0 0 0 0.25 0"/>
<feBlend mode="normal" in2="BackgroundImageFix" result="effect1_dropShadow_54_40"/>
<feBlend mode="normal" in="SourceGraphic" in2="effect1_dropShadow_54_40" result="shape"/>
</filter>
</defs>
</svg>
