<svg width="100" height="100" viewBox="0 0 100 100" fill="none" xmlns="http://www.w3.org/2000/svg">
<path d="M84.375 6.25H15.625C13.1386 6.25 10.754 7.23772 8.99587 8.99587C7.23772 10.754 6.25 13.1386 6.25 15.625L6.25 84.375C6.25 86.8614 7.23772 89.246 8.99587 91.0041C10.754 92.7623 13.1386 93.75 15.625 93.75H42.4316V64.002H30.127V50H42.4316V39.3281C42.4316 27.1895 49.6582 20.4844 60.7266 20.4844C66.0273 20.4844 71.5703 21.4297 71.5703 21.4297V33.3438H65.4629C59.4453 33.3438 57.5684 37.0781 57.5684 40.9082V50H71.002L68.8535 64.002H57.5684V93.75H84.375C86.8614 93.75 89.246 92.7623 91.0041 91.0041C92.7623 89.246 93.75 86.8614 93.75 84.375V15.625C93.75 13.1386 92.7623 10.754 91.0041 8.99587C89.246 7.23772 86.8614 6.25 84.375 6.25Z" fill="#0F3460"/>
</svg>
