<svg width="100" height="100" viewBox="0 0 100 100" fill="none" xmlns="http://www.w3.org/2000/svg">
<path d="M50.0195 27.5391C37.5977 27.5391 27.5781 37.5586 27.5781 49.9805C27.5781 62.4023 37.5977 72.4219 50.0195 72.4219C62.4414 72.4219 72.4609 62.4023 72.4609 49.9805C72.4609 37.5586 62.4414 27.5391 50.0195 27.5391ZM50.0195 64.5703C41.9922 64.5703 35.4297 58.0273 35.4297 49.9805C35.4297 41.9336 41.9727 35.3906 50.0195 35.3906C58.0664 35.3906 64.6094 41.9336 64.6094 49.9805C64.6094 58.0273 58.0469 64.5703 50.0195 64.5703ZM78.6133 26.6211C78.6133 29.5312 76.2695 31.8555 73.3789 31.8555C70.4688 31.8555 68.1445 29.5117 68.1445 26.6211C68.1445 23.7305 70.4883 21.3867 73.3789 21.3867C76.2695 21.3867 78.6133 23.7305 78.6133 26.6211ZM93.4766 31.9336C93.1445 24.9219 91.543 18.7109 86.4062 13.5937C81.2891 8.47656 75.0781 6.875 68.0664 6.52344C60.8398 6.11328 39.1797 6.11328 31.9531 6.52344C24.9609 6.85547 18.75 8.45703 13.6133 13.5742C8.47656 18.6914 6.89453 24.9023 6.54297 31.9141C6.13281 39.1406 6.13281 60.8008 6.54297 68.0273C6.875 75.0391 8.47656 81.25 13.6133 86.3672C18.75 91.4844 24.9414 93.0859 31.9531 93.4375C39.1797 93.8477 60.8398 93.8477 68.0664 93.4375C75.0781 93.1055 81.2891 91.5039 86.4062 86.3672C91.5234 81.25 93.125 75.0391 93.4766 68.0273C93.8867 60.8008 93.8867 39.1602 93.4766 31.9336ZM84.1406 75.7812C82.6172 79.6094 79.668 82.5586 75.8203 84.1016C70.0586 86.3867 56.3867 85.8594 50.0195 85.8594C43.6523 85.8594 29.9609 86.3672 24.2188 84.1016C20.3906 82.5781 17.4414 79.6289 15.8984 75.7812C13.6133 70.0195 14.1406 56.3477 14.1406 49.9805C14.1406 43.6133 13.6328 29.9219 15.8984 24.1797C17.4219 20.3516 20.3711 17.4023 24.2188 15.8594C29.9805 13.5742 43.6523 14.1016 50.0195 14.1016C56.3867 14.1016 70.0781 13.5937 75.8203 15.8594C79.6484 17.3828 82.5977 20.332 84.1406 24.1797C86.4258 29.9414 85.8984 43.6133 85.8984 49.9805C85.8984 56.3477 86.4258 70.0391 84.1406 75.7812Z" fill="#0F3460"/>
</svg>
