<svg width="86" height="61" viewBox="0 0 86 61" fill="none" xmlns="http://www.w3.org/2000/svg">
<g filter="url(#filter0_d_54_48)">
<path d="M68.3575 19.3125H60.1722L57.8972 13.625C55.5593 7.77754 49.9798 4 43.6811 4H26.3179C20.0206 4 14.4397 7.77754 12.1005 13.625L9.82548 19.3125H1.6415C0.573722 19.3125 -0.209677 20.316 0.0500887 21.351L0.870401 24.6322C1.05224 25.3623 1.70849 25.875 2.46181 25.875H5.20575C3.36962 27.4787 2.187 29.8098 2.187 32.4375V39C2.187 41.2039 3.02919 43.1932 4.3745 44.7326V52.125C4.3745 54.5408 6.33368 56.5 8.7495 56.5H13.1245C15.5403 56.5 17.4995 54.5408 17.4995 52.125V47.75H52.4995V52.125C52.4995 54.5408 54.4587 56.5 56.8745 56.5H61.2495C63.6653 56.5 65.6245 54.5408 65.6245 52.125V44.7326C66.9698 43.1945 67.812 41.2053 67.812 39V32.4375C67.812 29.8098 66.6294 27.4787 64.7946 25.875H67.5386C68.2919 25.875 68.9481 25.3623 69.13 24.6322L69.9503 21.351C70.2087 20.316 69.4253 19.3125 68.3575 19.3125ZM20.2243 16.8748C21.221 14.3838 23.6341 12.75 26.3179 12.75H43.6811C46.3649 12.75 48.778 14.3838 49.7747 16.8748L52.4995 23.6875H17.4995L20.2243 16.8748ZM13.1245 38.9727C10.4995 38.9727 8.7495 37.2281 8.7495 34.6113C8.7495 31.9945 10.4995 30.25 13.1245 30.25C15.7495 30.25 19.687 34.1752 19.687 36.792C19.687 39.4088 15.7495 38.9727 13.1245 38.9727ZM56.8745 38.9727C54.2495 38.9727 50.312 39.4088 50.312 36.792C50.312 34.1752 54.2495 30.25 56.8745 30.25C59.4995 30.25 61.2495 31.9945 61.2495 34.6113C61.2495 37.2281 59.4995 38.9727 56.8745 38.9727Z" fill="#0F3460"/>
</g>
<defs>
<filter id="filter0_d_54_48" x="0" y="0" width="85.9999" height="60.5" filterUnits="userSpaceOnUse" color-interpolation-filters="sRGB">
<feFlood flood-opacity="0" result="BackgroundImageFix"/>
<feColorMatrix in="SourceAlpha" type="matrix" values="0 0 0 0 0 0 0 0 0 0 0 0 0 0 0 0 0 0 127 0" result="hardAlpha"/>
<feOffset dx="12"/>
<feGaussianBlur stdDeviation="2"/>
<feComposite in2="hardAlpha" operator="out"/>
<feColorMatrix type="matrix" values="0 0 0 0 0 0 0 0 0 0 0 0 0 0 0 0 0 0 0.25 0"/>
<feBlend mode="normal" in2="BackgroundImageFix" result="effect1_dropShadow_54_48"/>
<feBlend mode="normal" in="SourceGraphic" in2="effect1_dropShadow_54_48" result="shape"/>
</filter>
</defs>
</svg>
